<svg id="Logo" xmlns="http://www.w3.org/2000/svg" width="214.814" height="60.219" viewBox="0 0 214.814 60.219">
  <g id="_2WT" transform="translate(61.374 24.135)">
    <path id="Path_2908" data-name="Path 2908" d="M1275.307,589.124a40.417,40.417,0,0,0-6.374-1.877c-2.395-.582-3.333-1.359-3.333-2.718,0-1.618,1.326-2.523,3.85-2.523,2.54,0,3.865.932,4.212,2.85a.516.516,0,0,0,.509.418h3.258a.525.525,0,0,0,.52-.583c-.416-3.8-3.421-6.471-8.6-6.471-5.242,0-7.862,2.751-7.862,6.6a5.342,5.342,0,0,0,3.591,5.306,30.852,30.852,0,0,0,5.889,1.65c2.685.582,3.333,1.456,3.333,2.718,0,1.909-1.521,3.042-4.174,3.042-2.682,0-4.465-1.179-4.751-3.118a.517.517,0,0,0-.511-.441h-3.312a.527.527,0,0,0-.52.576c.371,4.433,3.972,6.606,9.062,6.606,5.015,0,8.574-2.1,8.574-6.827a5.111,5.111,0,0,0-3.365-5.209Z" transform="translate(-1261.034 -578.22)" fill="#171414"/>
    <path id="Path_2909" data-name="Path 2909" d="M1750.578,718.53a5.648,5.648,0,0,0-4.262,1.54.519.519,0,0,1-.883-.374v-.225a.521.521,0,0,0-.521-.521h-2.969a.521.521,0,0,0-.521.521v14.876a.521.521,0,0,0,.521.521h3.163a.521.521,0,0,0,.521-.521v-8.6c0-2.427,1.068-3.656,3.268-3.656,2.006,0,2.718.68,2.718,3.139v9.121a.521.521,0,0,0,.521.521h3.2a.521.521,0,0,0,.521-.521V723.837A4.917,4.917,0,0,0,1750.578,718.53Z" transform="translate(-1721.37 -712.674)" fill="#171414"/>
    <path id="Path_2910" data-name="Path 2910" d="M2141.914,728.829a3.66,3.66,0,0,1-3.818,3.462c-1.327,0-2.039-.583-2.039-1.779,0-1.359.776-2.038,3.171-2.492l2.7-.184Zm-2.556-10.289c-4.813,0-6.7,2.035-6.96,5.027a.526.526,0,0,0,.522.57h2.932a.523.523,0,0,0,.507-.4c.283-1.194,1.083-1.957,2.8-1.957,1.651,0,2.686.615,2.686,1.65,0,1.1-.583,1.521-2.686,1.812-4.238.582-7.312,1.1-7.312,5.695,0,2.588,1.682,4.368,5.306,4.368,1.785,0,8.593-.42,8.593-.42a.4.4,0,0,0,.4-.4v-9.661c0-4.012-1.747-6.277-6.795-6.277Z" transform="translate(-2095.503 -712.683)" fill="#171414"/>
    <path id="Path_2911" data-name="Path 2911" d="M2534.126,731.7c-2.329,0-3.527-1.715-3.527-5.177,0-2.685,1.554-4.562,3.561-4.562,2.1,0,3.591,1.973,3.591,4.821C2537.751,730.049,2536.586,731.7,2534.126,731.7Zm1-13.169a4.976,4.976,0,0,0-3.577,1.3.519.519,0,0,1-.88-.365.521.521,0,0,0-.521-.513h-3.011a.522.522,0,0,0-.521.521v22.415a.522.522,0,0,0,.521.521h3.1a.522.522,0,0,0,.521-.521v-7.693a.519.519,0,0,1,.871-.385,5.365,5.365,0,0,0,3.853,1.48c4.108,0,6.535-3.4,6.535-8.218C2542.021,721.7,2539.142,718.53,2535.13,718.53Z" transform="translate(-2473.795 -712.674)" fill="#171414"/>
    <path id="Path_2912" data-name="Path 2912" d="M2898.043,598.5v-2.711a.521.521,0,0,0-.521-.521h-16.429a.521.521,0,0,0-.522.521V598.5a.521.521,0,0,0,.522.521h5.429a.521.521,0,0,1,.521.521v16.688a.521.521,0,0,0,.521.521h3.455a.521.521,0,0,0,.522-.521V599.545a.521.521,0,0,1,.521-.521h5.461A.521.521,0,0,0,2898.043,598.5Z" transform="translate(-2812.972 -594.559)" fill="#171414"/>
    <path id="Path_2913" data-name="Path 2913" d="M3196.12,732.1c-2.556,0-3.851-1.618-3.851-4.854s1.3-4.821,3.851-4.821,3.851,1.585,3.851,4.821S3198.677,732.1,3196.12,732.1Zm1.386-13.143a8.547,8.547,0,0,0-9.535,9.221c.361,4.444,3.334,7.448,8.149,7.448,4.95,0,8.089-3.332,8.089-8.38C3204.208,722.656,3201.672,719.519,3197.506,718.957Z" transform="translate(-3107.513 -713.011)" fill="#171414"/>
    <path id="Path_2914" data-name="Path 2914" d="M3663.677,608.643h-4.043a.521.521,0,0,1-.5-.681l2.531-7.861h.032l2.473,7.864A.523.523,0,0,1,3663.677,608.643Zm.8-13.015a.522.522,0,0,0-.492-.348h-4.473a.521.521,0,0,0-.491.346l-7.3,20.442a.522.522,0,0,0,.492.7h3.644a.523.523,0,0,0,.494-.352l1.278-3.729a.521.521,0,0,1,.493-.352h7.17a.522.522,0,0,1,.5.369l1.132,3.7a.523.523,0,0,0,.5.369h3.763a.522.522,0,0,0,.492-.695Z" transform="translate(-3551.91 -594.568)" fill="#171414"/>
    <path id="Path_2915" data-name="Path 2915" d="M4170.258,731.7c-2.332,0-3.527-1.715-3.527-5.177,0-2.685,1.552-4.562,3.56-4.562,2.1,0,3.591,1.973,3.591,4.821C4173.881,730.049,4172.715,731.7,4170.258,731.7Zm1-13.169a4.971,4.971,0,0,0-3.576,1.3.52.52,0,0,1-.881-.365.519.519,0,0,0-.521-.513h-3.011a.521.521,0,0,0-.521.521v22.415a.521.521,0,0,0,.521.521h3.1a.521.521,0,0,0,.52-.521v-7.693a.519.519,0,0,1,.871-.385,5.369,5.369,0,0,0,3.854,1.48c4.109,0,6.536-3.4,6.536-8.218C4178.151,721.7,4175.27,718.53,4171.259,718.53Z" transform="translate(-4041.634 -712.674)" fill="#171414"/>
    <path id="Path_2916" data-name="Path 2916" d="M4575.677,731.7c-2.33,0-3.527-1.715-3.527-5.177,0-2.685,1.553-4.562,3.558-4.562,2.1,0,3.592,1.973,3.592,4.821C4579.3,730.049,4578.137,731.7,4575.677,731.7Zm1-13.169a4.979,4.979,0,0,0-3.577,1.3.519.519,0,0,1-.879-.365.521.521,0,0,0-.521-.513h-3.011a.521.521,0,0,0-.521.521v22.415a.521.521,0,0,0,.521.521h3.1a.521.521,0,0,0,.521-.521v-7.693a.519.519,0,0,1,.87-.385,5.37,5.37,0,0,0,3.853,1.48c4.11,0,6.537-3.4,6.537-8.218,0-5.371-2.88-8.542-6.892-8.542Z" transform="translate(-4430.132 -712.674)" fill="#171414"/>
  </g>
  <g id="_2WF">
    <path id="Path_2917" data-name="Path 2917" d="M41.544,328.785a7.842,7.842,0,0,0-1.28-.175l-.155-.007a7.529,7.529,0,0,0-4.26,1.149L17.581,341.035c-.806-4.071-2.194-7.086-4.138-8.975a9.406,9.406,0,0,0-5.228-2.723,8.508,8.508,0,0,0-3.607.329,6.378,6.378,0,0,0-4.366,7.854c.142.489.319.96.505,1.459a19.944,19.944,0,0,1,.7,2.12,7.348,7.348,0,0,1,.169,3.644c-1.6,5.855-1.328,10.407.847,13.911A2.1,2.1,0,0,0,6.389,357.6V357l-.324-.514c-1.551-2.459-1.678-5.935-.393-10.627a11.31,11.31,0,0,0-.152-5.8,23.727,23.727,0,0,0-.835-2.547c-.165-.442-.308-.823-.405-1.158A2.164,2.164,0,0,1,5.794,333.7a4.388,4.388,0,0,1,1.854-.2,5.35,5.35,0,0,1,2.863,1.572c1.481,1.439,2.578,4.233,3.172,8.081a3.2,3.2,0,0,0,4.842,2.237l19.55-12.076a3.331,3.331,0,0,1,1.854-.514l.041,0a3.56,3.56,0,0,1,.649.082,3.369,3.369,0,0,1,2.118,1.483,3.433,3.433,0,0,1-.979,4.616L36.253,342.4a6.771,6.771,0,0,0-2.561,8.628l2.715,5.789a8.247,8.247,0,0,1-3.156,10.538l-6.265,3.848a2.1,2.1,0,1,0,2.2,3.584l6.264-3.848a12.449,12.449,0,0,0,4.763-15.907l-2.715-5.79a2.566,2.566,0,0,1,.97-3.269l5.25-3.257.21-.128a7.576,7.576,0,0,0-2.385-13.807Z" transform="translate(0.006 -314.883)" fill="#171414"/>
    <path id="Path_2918" data-name="Path 2918" d="M244.228,144.767a3.208,3.208,0,1,0-3.208-3.209A3.208,3.208,0,0,0,244.228,144.767Z" transform="translate(-230.96 -132.575)" fill="#171414"/>
    <path id="Path_2919" data-name="Path 2919" d="M599.718,144.767a3.208,3.208,0,1,0-3.208-3.209A3.208,3.208,0,0,0,599.718,144.767Z" transform="translate(-571.612 -132.575)" fill="#171414"/>
    <path id="Path_2920" data-name="Path 2920" d="M422.929,6.416a3.208,3.208,0,1,0-3.209-3.208A3.208,3.208,0,0,0,422.929,6.416Z" transform="translate(-402.201 0)" fill="#171414"/>
  </g>
</svg>
